<svg width="32" height="32" viewBox="0 0 32 32" fill="none" xmlns="http://www.w3.org/2000/svg">
  <!-- Background -->
  <rect width="32" height="32" rx="8" fill="#1f144b" />

  <!-- Gorilla silhouette in gradient colors -->
  <path d="M24 9C24 9 22 10 21 11C20 12 20 13 19 14C18 15 16 16 16 16C16 16 14 15 13 14C12 13 12 12 11 11C10 10 8 9 8 9C8 9 8 13 9 15C10 17 12 18 12 18C12 18 10 19 9 21C8 23 8 25 8 25L10 26C10 26 11 24 12 23C13 22 15 22 15 22V25L17 26L19 25V22C19 22 21 22 22 23C23 24 24 26 24 26L26 25C26 25 26 23 25 21C24 19 22 18 22 18C22 18 24 17 25 15C26 13 26 9 26 9L24 9Z" fill="url(#gradient)" />

  <!-- Gradients definition -->
  <defs>
    <linearGradient id="gradient" x1="8" y1="9" x2="26" y2="26" gradientUnits="userSpaceOnUse">
      <stop offset="0%" stop-color="#49bdd1" />
      <stop offset="100%" stop-color="#c926ac" />
    </linearGradient>
  </defs>
</svg>
